<?xml version="1.0" standalone="no"?>
<!DOCTYPE svg PUBLIC "-//W3C//DTD SVG 20010904//EN"
 "http://www.w3.org/TR/2001/REC-SVG-20010904/DTD/svg10.dtd">
<svg version="1.0" xmlns="http://www.w3.org/2000/svg"
 width="300.000000pt" height="300.000000pt" viewBox="0 0 300.000000 300.000000"
 preserveAspectRatio="xMidYMid meet">
<metadata>
Created by potrace 1.10, written by Peter Selinger 2001-2011
</metadata>
<g transform="translate(0.000000,300.000000) scale(0.100000,-0.100000)"
fill="#000000" stroke="none">
<path d="M1957 2989 c-80 -9 -133 -47 -170 -119 -24 -49 -28 -71 -33 -175 -8
-182 -30 -225 -114 -225 -25 0 -34 8 -59 51 -16 29 -42 86 -56 128 -17 46 -38
85 -54 98 -30 26 -79 38 -111 28 -34 -11 -85 -61 -104 -103 -13 -28 -27 -42
-52 -51 -82 -30 -142 -136 -131 -232 8 -63 25 -95 98 -176 73 -82 95 -123 102
-186 7 -57 -14 -136 -43 -162 -46 -42 -147 1 -257 111 -62 62 -82 70 -123 49
-39 -20 -66 -65 -82 -135 -9 -39 -21 -62 -40 -79 -37 -30 -58 -72 -58 -113 0
-82 58 -218 113 -264 15 -13 56 -40 90 -60 34 -20 69 -45 79 -56 25 -29 22
-72 -6 -105 -24 -27 -26 -28 -118 -25 l-94 2 -31 -32 c-31 -32 -53 -75 -53
-103 0 -7 16 -32 35 -55 28 -33 33 -47 28 -71 -5 -26 1 -36 51 -84 31 -30 61
-67 67 -83 16 -41 1 -211 -21 -242 -10 -14 -39 -72 -66 -130 -65 -143 -106
-203 -174 -255 -65 -50 -113 -102 -107 -118 5 -17 282 -10 340 9 52 17 62 30
82 108 8 28 31 78 53 111 21 33 48 82 58 109 29 74 142 178 206 190 46 8 93
46 119 97 21 42 31 45 90 28 34 -11 44 -9 94 16 66 32 97 73 93 125 -3 35 -29
60 -120 115 -56 34 -46 85 24 121 56 29 183 10 249 -38 40 -29 44 -30 138 -26
58 2 108 9 126 18 43 22 75 75 75 126 0 42 1 44 47 64 124 55 150 140 68 224
l-42 43 -89 5 c-66 3 -102 10 -136 26 -78 39 -83 103 -9 146 39 22 77 24 266
12 181 -12 225 1 294 85 57 72 65 99 45 164 -20 67 -19 70 25 118 64 71 76
113 47 180 -31 74 -100 92 -240 63 -140 -29 -178 -19 -191 50 -9 46 24 87 104
129 83 44 116 74 132 122 22 68 -10 193 -61 238 -17 15 -41 21 -103 25 l-81 5
-16 50 c-8 28 -20 57 -25 65 -29 44 -81 59 -168 49z m93 -44 c32 -17 60 -61
60 -95 0 -12 14 -35 30 -52 27 -27 34 -29 68 -22 86 18 115 5 152 -72 27 -60
29 -137 3 -172 -11 -15 -58 -48 -104 -73 -65 -35 -89 -54 -107 -85 -35 -61
-19 -130 38 -159 38 -20 62 -19 138 5 81 25 157 26 202 2 28 -16 37 -28 47
-70 17 -65 6 -93 -46 -127 -51 -32 -58 -59 -36 -140 19 -71 12 -96 -42 -147
-65 -62 -158 -74 -363 -49 -121 15 -188 -7 -228 -77 -24 -44 -27 -69 -11 -105
19 -41 64 -59 168 -67 106 -7 126 -15 165 -61 56 -66 41 -114 -47 -153 -66
-29 -79 -45 -84 -104 -6 -63 -23 -87 -78 -107 -65 -25 -151 -16 -213 23 -67
42 -115 55 -186 50 -77 -7 -135 -34 -159 -76 -30 -51 -17 -76 64 -127 82 -53
101 -83 77 -123 -9 -15 -35 -38 -59 -51 -38 -22 -46 -23 -86 -13 -85 23 -105
15 -117 -49 -5 -28 -14 -39 -41 -52 -20 -9 -51 -17 -70 -17 -21 0 -35 -5 -35
-12 0 -7 -20 -25 -44 -41 -52 -33 -126 -110 -126 -132 0 -23 -36 -89 -91 -171
-30 -43 -51 -86 -55 -113 -10 -62 -48 -79 -160 -73 -31 2 -31 3 61 95 91 92
152 187 185 290 6 21 23 51 37 68 47 56 14 42 -48 -20 -58 -58 -61 -64 -56
-99 3 -20 3 -32 0 -25 -2 7 -36 -36 -75 -95 -39 -59 -95 -129 -125 -155 -29
-27 -53 -55 -53 -63 0 -11 -4 -12 -19 -4 -11 5 -29 10 -40 10 -12 0 -21 2 -21
4 0 2 32 35 71 73 84 80 144 167 190 278 41 98 52 113 109 151 27 18 54 48 69
74 13 25 71 133 130 240 100 182 134 253 176 372 15 43 19 47 41 42 16 -4 56
8 126 40 102 45 212 79 246 75 55 -5 74 14 23 24 -36 7 -119 -16 -275 -77 -65
-25 -120 -45 -122 -44 -1 2 17 32 41 68 23 36 93 157 155 270 62 113 151 266
198 340 96 151 301 526 335 610 16 40 32 61 60 79 40 26 47 48 20 58 -28 11
-69 -51 -170 -257 -152 -311 -291 -558 -344 -615 -16 -17 -34 -46 -40 -65 -7
-19 -28 -54 -46 -77 -19 -23 -70 -113 -114 -200 -44 -87 -85 -162 -90 -168
-15 -14 -76 57 -143 168 -67 111 -249 300 -260 271 -5 -13 18 -40 84 -102 102
-96 184 -210 234 -325 34 -79 34 -79 16 -110 -10 -18 -21 -49 -24 -70 -4 -20
-22 -63 -40 -95 -18 -31 -72 -131 -120 -221 -48 -90 -108 -192 -134 -226 -41
-56 -48 -61 -54 -43 -5 11 -6 29 -3 41 3 12 7 46 9 76 6 67 -8 97 -68 146 -48
39 -59 60 -60 112 -1 17 -9 40 -17 50 -28 32 -40 62 -33 87 11 46 37 58 136
65 108 9 129 18 152 65 38 80 15 125 -99 191 -88 50 -91 53 -130 129 -31 60
-40 91 -43 143 l-5 66 45 41 c40 36 46 48 53 96 10 76 27 100 70 100 35 0 45
-7 150 -104 30 -28 116 -66 149 -66 113 0 172 177 102 310 -16 30 -48 81 -72
112 -125 161 -124 259 2 333 36 21 62 47 87 88 41 65 75 84 118 67 40 -17 53
-35 98 -140 64 -149 124 -190 201 -137 58 39 73 85 85 255 9 135 39 202 107
235 42 21 110 22 148 2z"/>
<path d="M1150 2510 c0 -5 73 -83 163 -172 152 -153 277 -306 277 -341 0 -20
36 -64 45 -55 4 4 0 19 -9 33 -14 22 -15 26 -2 23 8 -2 15 2 15 7 2 25 -13 45
-49 69 -22 14 -40 32 -40 38 0 7 -12 29 -27 50 -22 33 -26 48 -24 99 2 53 -1
66 -30 110 -40 63 -56 71 -132 68 -67 -2 -127 23 -148 62 -10 20 -39 26 -39 9z
m237 -101 c31 -11 71 -52 84 -87 5 -13 6 -41 3 -63 -6 -38 -7 -39 -26 -22 -16
15 -17 18 -3 25 22 13 19 44 -6 62 -17 12 -26 12 -41 3 -17 -11 -24 -6 -59 33
-21 25 -39 48 -39 53 0 11 54 9 87 -4z"/>
<path d="M2336 2073 c-4 -4 -24 -6 -44 -5 -20 2 -71 -8 -113 -21 -64 -20 -80
-22 -100 -12 -61 32 -177 47 -223 29 -15 -6 -45 -60 -60 -110 -4 -14 -23 -26
-61 -38 -30 -9 -55 -21 -55 -27 0 -12 52 -12 87 2 93 36 488 149 521 149 23 0
45 6 52 15 13 16 9 31 -4 18z m-340 -38 c31 -8 59 -17 61 -19 3 -3 -28 -14
-69 -26 -40 -12 -77 -24 -82 -27 -4 -3 -5 3 -2 14 8 26 -16 47 -46 38 l-23 -6
24 20 c28 25 60 26 137 6z"/>
<path d="M1128 812 c-31 -6 -19 -20 24 -27 24 -4 50 -17 63 -31 25 -27 35 -30
35 -11 0 33 -80 79 -122 69z"/>
</g>
</svg>
